<svg width="70" height="70" viewBox="0 0 70 70" fill="none" xmlns="http://www.w3.org/2000/svg">
<rect width="70" height="70" rx="10" fill="#1C97E6"/>
<rect width="70" height="70" rx="10" fill="url(#paint0_linear_6_370)"/>
<path d="M58.0091 41.9717C53.2646 45.9442 48.5202 49.9167 43.7607 53.8742C42.98 54.5212 42.0941 54.6717 41.1783 54.2353C40.2624 53.814 39.797 53.0616 39.797 52.0384C39.797 50.4885 39.797 48.9236 39.797 47.2985C39.5418 47.2834 39.3316 47.2684 39.1214 47.2684C38.3857 47.2383 37.65 47.2985 36.9443 47.1931C35.7432 47.0126 34.9174 45.8991 35.0075 44.6802C35.0976 43.5065 36.0585 42.4984 37.2446 42.4683C38.9412 42.4231 40.6528 42.4231 42.3644 42.4683C43.5805 42.4984 44.5264 43.5065 44.5865 44.7404C44.6165 45.4326 44.5865 46.1097 44.5865 46.9524C47.4091 44.605 50.0967 42.3479 52.8442 40.0607C50.0967 37.7735 47.4091 35.5164 44.5865 33.169C44.5865 33.8611 44.5865 34.4179 44.5865 34.9596C44.5715 36.7051 43.6556 37.638 41.914 37.638C38.2656 37.638 34.6021 37.638 30.9537 37.638H30.218C30.203 37.8788 30.188 38.0744 30.188 38.27C30.188 39.6093 30.173 40.9334 30.188 42.2726C30.203 43.3561 29.7826 44.1837 28.7767 44.6351C27.8158 45.0715 26.9149 44.8608 26.1192 44.1987C21.4047 40.2262 16.6903 36.2988 11.9759 32.3414C10.6997 31.273 10.6697 29.6027 11.9459 28.5344C16.6903 24.5619 21.4648 20.5743 26.2243 16.6018C27.005 15.9547 27.8908 15.8043 28.7917 16.2406C29.7376 16.677 30.188 17.4595 30.188 18.4978C30.188 19.852 30.188 21.2063 30.188 22.5455V23.2076C31.0288 23.2076 31.7945 23.1925 32.5452 23.2076C34.3619 23.2678 35.503 25.0133 34.7673 26.6083C34.3469 27.5111 33.6262 27.9927 32.6353 28.0077C31.0138 28.0378 29.3772 28.0378 27.7407 28.0077C26.4345 27.9927 25.4435 26.9845 25.4135 25.6754C25.3985 25.0133 25.4135 24.3361 25.4135 23.5236C22.5909 25.871 19.9033 28.1281 17.1558 30.4153C19.9033 32.7025 22.5909 34.9596 25.4135 37.307C25.4135 36.5847 25.4135 35.9828 25.4135 35.396C25.4285 33.801 26.3744 32.8379 27.9659 32.8229C31.6594 32.8229 35.3528 32.8229 39.0463 32.8229H39.782C39.797 32.5821 39.812 32.3865 39.812 32.1909C39.812 30.8517 39.827 29.5275 39.812 28.1883C39.797 27.135 40.2024 26.3074 41.1633 25.8559C42.1392 25.3895 43.055 25.5851 43.8808 26.2773C48.5802 30.2046 53.2947 34.132 57.9941 38.0744C59.3153 39.203 59.3453 40.8582 58.0091 41.9717Z" fill="white"/>
<defs>
<linearGradient id="paint0_linear_6_370" x1="0" y1="70" x2="70" y2="0" gradientUnits="userSpaceOnUse">
<stop stop-color="#2E57FD"/>
<stop offset="1" stop-color="#1CD4DC"/>
</linearGradient>
</defs>
</svg>
