<svg width="32" height="31" viewBox="0 0 32 31" fill="none" xmlns="http://www.w3.org/2000/svg">
<path d="M30.7143 12.6868C29.4036 11.5649 27.4083 11.5902 26.0976 12.7543C26.0308 12.8133 25.9556 12.8808 25.8722 12.9483C23.1004 11.0419 20.0031 10.1815 16.6303 10.0297C17.2565 7.15319 17.8659 4.2936 18.492 1.40027C19.2267 1.56898 19.9447 1.73769 20.6543 1.89796C21.8231 2.16789 22.9836 2.43782 24.1524 2.69932C24.3611 2.74149 24.4279 2.82585 24.4529 3.04517C24.6366 4.45388 25.6551 5.42394 27.0076 5.48299C28.2515 5.54204 29.4036 4.61415 29.6875 3.32354C29.9713 2.04979 29.3034 0.725441 28.1263 0.219318C26.9408 -0.295239 25.5967 0.126529 24.8703 1.25687C24.7451 1.45088 24.6366 1.51837 24.4028 1.46775C22.3658 0.995373 20.3287 0.539863 18.2833 0.0759172C17.749 -0.042178 17.4819 0.126529 17.365 0.674829C16.8474 3.07891 16.3298 5.48299 15.8038 7.87864C15.6702 8.50285 15.52 9.12707 15.4031 9.75972C15.3613 9.99591 15.2528 10.055 15.0274 10.0634C12.4477 10.1984 9.99322 10.831 7.69736 12.0457C7.17975 12.3156 6.67049 12.6531 6.13619 12.9736C5.65197 12.4759 5.06757 12.1301 4.38299 11.9614C2.39603 11.4721 0.45917 12.7543 0.0667884 14.8125C0.0500913 14.8969 0.0250457 14.9728 0 15.0487V15.9935C0.0417428 16.179 0.0834855 16.3562 0.141925 16.5418C0.417428 17.4697 0.976781 18.1782 1.81164 18.659C1.95356 18.7434 2.02035 18.8193 1.9953 19.0049C1.56118 21.4343 2.16228 23.6106 3.62327 25.5592C5.09262 27.5162 7.03783 28.849 9.29194 29.7094C13.9755 31.4977 18.659 31.4471 23.2925 29.5069C25.4965 28.5875 27.3832 27.2041 28.7441 25.188C30.0214 23.2985 30.5557 21.2318 30.0798 18.9627C30.0297 18.735 30.1717 18.6928 30.2969 18.6084C32.3757 17.2925 32.5927 14.298 30.7143 12.6868ZM7.47195 19.1567C7.46361 17.6299 8.6491 16.4068 10.1435 16.4068C11.6045 16.4068 12.79 17.6215 12.7983 19.1399C12.7983 20.6245 11.6128 21.8476 10.1602 21.856C8.67415 21.8729 7.4803 20.6667 7.47195 19.1567ZM21.8732 25.652C21.03 26.4702 19.9864 26.9257 18.8677 27.1535C17.9243 27.3475 16.9643 27.4403 16.0042 27.5752C16.0042 27.5499 15.9958 27.5246 15.9875 27.4909C14.3512 27.474 12.7482 27.2462 11.2789 26.4618C10.8448 26.2256 10.4524 25.905 10.0684 25.576C9.7845 25.3314 9.8179 24.9434 10.0684 24.6735C10.2854 24.4373 10.6778 24.3867 10.9199 24.6228C11.8132 25.4664 12.9236 25.8038 14.084 25.9894C15.8873 26.2762 17.6739 26.2087 19.4187 25.6098C20.0031 25.4073 20.5458 25.1205 21.005 24.6903C21.3055 24.4035 21.7062 24.4204 21.9483 24.6988C22.1988 24.994 22.1821 25.3567 21.8732 25.652ZM21.8732 21.8645C20.4122 21.8729 19.2267 20.6582 19.2267 19.1652C19.2184 17.6384 20.3955 16.4237 21.8649 16.4237C23.3426 16.4237 24.528 17.6215 24.5447 19.1399C24.5614 20.616 23.3426 21.8645 21.8732 21.8645Z" fill="#BDCCE3"/>
</svg>
