<svg width="32" height="28" viewBox="0 0 32 28" fill="none" xmlns="http://www.w3.org/2000/svg">
<path fill-rule="evenodd" clip-rule="evenodd" d="M24.5 26.7C24.9 27 25.5 27.1 26 26.9C26.5 26.7 26.8 26.3 27 25.8C28.2 20.5 31 7.09999 32 2.19998C32.1 1.79998 31.9 1.49998 31.6 1.19998C31.3 0.999985 30.9 0.899985 30.5 0.999985C25 3.09999 7.8 9.39999 0.7 11.9C0.3 12.1 0 12.5 0 13C0 13.5 0.3 13.9 0.8 14C4 14.9 8.1 16.2 8.1 16.2C8.1 16.2 10 21.9 11.1 24.8C11.2 25.2 11.5 25.5 11.9 25.5C12.3 25.6 12.7 25.5 13 25.2C14.6 23.7 17.1 21.4 17.1 21.4C17.1 21.4 21.8 24.8 24.5 26.7ZM9.8 15.4L12 22.6L12.5 18C12.5 18 21.1 10.4 26.1 6.09999C26.2 5.99999 26.3 5.79999 26.2 5.59999C26.1 5.49999 25.9 5.39999 25.7 5.49999L9.8 15.4Z" fill="#BDCCE3"/>
</svg>
