<svg width="70" height="70" viewBox="0 0 70 70" fill="none" xmlns="http://www.w3.org/2000/svg">
<rect width="70" height="70" rx="10" fill="url(#paint0_linear_6_368)"/>
<g clip-path="url(#clip0_6_368)">
<path d="M35.0358 11C21.8082 10.9857 11.043 21.7143 11 34.9429C10.9571 48.1572 21.7367 58.9714 34.9785 59C48.2061 59.0286 59.0143 48.2286 59.0143 35C59 21.7857 48.249 11.0143 35.0358 11ZM26.0886 16.4429C25.2583 18.0429 24.4566 19.6 23.612 21.2143C22.7387 20.8572 21.8226 20.5 20.8205 20.1C22.4238 18.5572 24.156 17.4 26.0886 16.4429ZM24.7716 33.2572C24.972 30.6143 25.2726 28.0286 25.9168 25.5429C28.3791 25.8572 30.7841 26.1572 33.2464 26.4714V33.2572H24.7716ZM33.2464 36.7429V43.4857C30.7984 43.8 28.3791 44.1143 25.9025 44.4286C25.244 41.9714 24.8574 39.4 24.7572 36.7429H33.2464ZM15.2947 29.1C15.8816 26.9286 16.898 24.9572 18.1864 23.1143C18.4011 22.8 18.5586 22.7572 18.9165 22.9143C20.0188 23.4286 21.1354 23.8714 22.2377 24.3714C22.3809 24.4286 22.567 24.6857 22.5383 24.7857C21.8226 27.5 21.4647 30.2714 21.3215 33.0714C21.3215 33.1286 21.2929 33.1714 21.2786 33.2429H14.3928C14.7077 31.8286 14.9368 30.4429 15.2947 29.1ZM14.5073 36.7429H21.164C21.5935 39.6429 22.0087 42.5429 22.4381 45.4714C21.164 46.0143 19.8184 46.6 18.4155 47.2C16.1679 44.1 14.5503 40.7429 14.5073 36.7429ZM20.7918 49.8857C21.8082 49.4714 22.7244 49.1 23.5977 48.7572C24.4423 50.3857 25.244 51.9429 26.0743 53.5286C24.156 52.6286 22.4381 51.4143 20.7918 49.8857ZM33.2607 55.2714C29.9824 53.7714 28.422 50.9286 27.0334 47.8429C29.1092 47.3572 31.1706 47.1286 33.2607 47.0286V55.2714ZM33.2607 23.0143C31.1849 22.7572 29.1378 22.5 27.0048 22.2286C28.422 19.0572 29.9967 16.2143 33.2607 14.7143V23.0143ZM51.7134 22.9714C53.8464 25.9857 55.1205 29.3286 55.4641 33.0143C55.4784 33.0857 55.4641 33.1572 55.4497 33.2572H48.7071C48.6069 32.1714 48.564 31.1 48.4065 30.0429C48.1488 28.3429 47.8053 26.6429 47.476 24.9429C47.4044 24.6 47.433 24.4572 47.7909 24.3143C48.9219 23.8572 50.0242 23.3714 51.1265 22.8714C51.3555 22.8 51.5273 22.7 51.7134 22.9714ZM49.1795 20.0857C48.1918 20.4857 47.2756 20.8572 46.388 21.2143C45.5577 19.6 44.7417 18.0429 43.9114 16.4572C45.8583 17.3857 47.5905 18.5714 49.1795 20.0857ZM36.7537 14.8143C38.7722 15.2 41.5064 18.4286 42.9809 22.2286C40.8765 22.5 38.8437 22.7572 36.7537 23.0143V14.8143ZM36.7393 26.4714C39.1873 26.1572 41.6209 25.8429 44.0975 25.5286C44.7704 28 45.1426 30.5857 45.2428 33.2429H36.7393V26.4714ZM45.2285 36.7429C45.1283 39.3857 44.756 41.9572 44.0975 44.4143C41.6353 44.1 39.2159 43.7857 36.7537 43.4714V36.7429H45.2285ZM36.7393 55.2857V46.9429C38.8151 47.2 40.8479 47.4572 43.0239 47.7286C41.6066 50.9143 40.0319 53.7572 36.7393 55.2857ZM43.9257 53.5429C44.756 51.9572 45.5577 50.4 46.4166 48.7572C47.2899 49.1 48.2204 49.4714 49.2225 49.8857C47.5905 51.4143 45.8583 52.6 43.9257 53.5429ZM51.5702 47.2C50.1673 46.6 48.8217 46.0143 47.5476 45.4714C47.977 42.5714 48.4065 39.6714 48.836 36.7429H55.4927C55.1491 40.6286 53.8464 44.1 51.5702 47.2Z" fill="white"/>
</g>
<defs>
<linearGradient id="paint0_linear_6_368" x1="0" y1="70" x2="70" y2="0" gradientUnits="userSpaceOnUse">
<stop stop-color="#2E57FD"/>
<stop offset="1" stop-color="#1CD4DC"/>
</linearGradient>
<clipPath id="clip0_6_368">
<rect width="48" height="48" fill="white" transform="translate(11 11)"/>
</clipPath>
</defs>
</svg>
