<svg width="24" height="20" viewBox="0 0 24 20" fill="none" xmlns="http://www.w3.org/2000/svg">
<path fill-rule="evenodd" clip-rule="evenodd" d="M18.375 19.5251C18.675 19.7501 19.125 19.8251 19.5 19.6751C19.875 19.5251 20.1 19.2251 20.25 18.8501C21.15 14.8751 23.25 4.82513 24 1.15013C24.075 0.850126 23.925 0.625126 23.7 0.400126C23.475 0.250126 23.175 0.175126 22.875 0.250126C18.75 1.82513 5.85 6.55013 0.525 8.42513C0.225 8.57513 0 8.87513 0 9.25013C0 9.62513 0.225 9.92513 0.6 10.0001C3 10.6751 6.075 11.6501 6.075 11.6501C6.075 11.6501 7.5 15.9251 8.325 18.1001C8.4 18.4001 8.625 18.6251 8.925 18.6251C9.225 18.7001 9.525 18.6251 9.75 18.4001C10.95 17.2751 12.825 15.5501 12.825 15.5501C12.825 15.5501 16.35 18.1001 18.375 19.5251ZM7.35 11.0501L9 16.4501L9.375 13.0001C9.375 13.0001 15.825 7.30013 19.575 4.07513C19.65 4.00013 19.725 3.85013 19.65 3.70013C19.575 3.62513 19.425 3.55013 19.275 3.62513L7.35 11.0501Z" fill="white"/>
</svg>
