<svg width="24" height="22" viewBox="0 0 24 22" fill="none" xmlns="http://www.w3.org/2000/svg">
<path d="M11.9988 7.19524L17.7486 17.1698H6.2491L11.9988 7.19524ZM11.9988 0.297883C11.6281 0.295847 11.2635 0.392533 10.9425 0.578011C10.6215 0.76349 10.3556 1.03107 10.1722 1.35328L0.283258 18.5086C0.0984988 18.8291 0.00133505 19.1926 0.00152616 19.5626C0.00171727 19.9325 0.0992565 20.2959 0.284347 20.6163C0.469437 20.9366 0.73556 21.2026 1.05599 21.3875C1.37641 21.5724 1.73986 21.6698 2.10982 21.6698H21.8878C22.2578 21.6698 22.6212 21.5724 22.9417 21.3875C23.2621 21.2026 23.5282 20.9366 23.7133 20.6163C23.8984 20.2959 23.9959 19.9325 23.9961 19.5626C23.9963 19.1926 23.8992 18.8291 23.7144 18.5086L13.8254 1.35328C13.642 1.03108 13.3762 0.763497 13.0552 0.578019C12.7341 0.392541 12.3696 0.295852 11.9988 0.297883Z" fill="white"/>
</svg>
