<svg width="24" height="20" viewBox="0 0 24 20" fill="none" xmlns="http://www.w3.org/2000/svg">
<path d="M2.85 4.225C2.85 3.925 2.775 3.625 2.55 3.4L0.3 0.625V0.25H7.275L12.675 12.325L17.4 0.25H24V0.7L22.05 2.575C21.9 2.725 21.825 2.95 21.825 3.1V16.9C21.825 17.125 21.9 17.35 22.05 17.425L23.925 19.3V19.75H14.55V19.3L16.5 17.35C16.725 17.2 16.725 17.125 16.725 16.825V5.725L11.25 19.675H10.5L4.275 5.725V15.1C4.2 15.475 4.35 15.85 4.65 16.15L7.2 19.3V19.675H0V19.3L2.55 16.15C2.85 15.85 2.925 15.475 2.85 15.1V4.225Z" fill="white"/>
</svg>
