<svg width="32" height="24" viewBox="0 0 32 24" fill="none" xmlns="http://www.w3.org/2000/svg">
<path d="M26.7033 2.09447C26.6946 2.07762 26.6801 2.06442 26.6624 2.05723C24.6203 1.12665 22.4655 0.463075 20.2515 0.0831096C20.2314 0.0793953 20.2106 0.0820753 20.1921 0.0907667C20.1737 0.0994593 20.1584 0.113721 20.1486 0.131523C19.8551 0.660512 19.5887 1.20386 19.3504 1.75951C16.964 1.39969 14.5365 1.39969 12.1501 1.75951C11.9102 1.20244 11.6395 0.658958 11.3393 0.131523C11.3291 0.114107 11.3137 0.100174 11.2953 0.0915393C11.2769 0.0829038 11.2564 0.0799667 11.2363 0.0831096C9.02215 0.462278 6.86709 1.12591 4.82531 2.05728C4.80783 2.06464 4.79309 2.07721 4.78311 2.09324C0.699968 8.14966 -0.418557 14.0572 0.130153 19.8916C0.131697 19.9058 0.13612 19.9197 0.143159 19.9322C0.150199 19.9448 0.159711 19.9559 0.17113 19.9647C2.5487 21.7132 5.20805 23.0479 8.03568 23.9117C8.05559 23.9176 8.07686 23.9174 8.09661 23.911C8.11637 23.9045 8.13366 23.8922 8.14618 23.8758C8.75349 23.055 9.29162 22.1858 9.75509 21.2773C9.76145 21.2648 9.76509 21.2511 9.76575 21.2372C9.76641 21.2232 9.76409 21.2093 9.75894 21.1962C9.75377 21.1832 9.74591 21.1714 9.73583 21.1616C9.72576 21.1519 9.71371 21.1444 9.7005 21.1396C8.85192 20.817 8.03039 20.4284 7.24362 19.9769C7.22933 19.9686 7.21733 19.9569 7.20867 19.9429C7.20002 19.9288 7.19498 19.9128 7.194 19.8964C7.19302 19.88 7.19614 19.8636 7.20306 19.8486C7.20999 19.8336 7.22051 19.8206 7.23372 19.8106C7.3988 19.6878 7.56399 19.56 7.72163 19.4309C7.73563 19.4194 7.75258 19.4121 7.77056 19.4097C7.78855 19.4073 7.80685 19.41 7.82341 19.4173C12.9778 21.7537 18.5582 21.7537 23.6515 19.4173C23.6682 19.4095 23.6866 19.4064 23.7049 19.4087C23.7232 19.4109 23.7405 19.4182 23.7546 19.4297C23.9123 19.5588 24.0775 19.6878 24.2438 19.8106C24.257 19.8205 24.2677 19.8334 24.2747 19.8484C24.2817 19.8632 24.285 19.8797 24.2841 19.8961C24.2833 19.9125 24.2784 19.9285 24.2698 19.9426C24.2613 19.9567 24.2494 19.9685 24.2351 19.9769C23.4502 20.4321 22.6279 20.8206 21.777 21.1383C21.7639 21.1433 21.7519 21.151 21.7418 21.1609C21.7319 21.1709 21.724 21.1828 21.719 21.1959C21.7139 21.209 21.7118 21.223 21.7125 21.237C21.7133 21.2511 21.717 21.2648 21.7235 21.2773C22.1947 22.1808 22.732 23.0488 23.3312 23.8743C23.3433 23.8912 23.3606 23.9039 23.3803 23.9106C23.4002 23.9173 23.4216 23.9176 23.4417 23.9116C26.2744 23.0506 28.9384 21.7159 31.3189 19.9647C31.3305 19.9562 31.3401 19.9455 31.3472 19.9331C31.3543 19.9207 31.3586 19.907 31.3599 19.8928C32.0168 13.1477 30.2601 7.28853 26.7033 2.09447ZM10.5248 16.339C8.97299 16.339 7.69431 14.9246 7.69431 13.1873C7.69431 11.4502 8.94819 10.0356 10.5248 10.0356C12.1138 10.0356 13.3801 11.4625 13.3553 13.1873C13.3553 14.9246 12.1014 16.339 10.5248 16.339ZM20.9902 16.339C19.4384 16.339 18.1597 14.9246 18.1597 13.1873C18.1597 11.4502 19.4136 10.0356 20.9902 10.0356C22.5793 10.0356 23.8455 11.4625 23.8207 13.1873C23.8207 14.9246 22.5793 16.339 20.9902 16.339Z" fill="white"/>
</svg>
