<svg width="70" height="70" viewBox="0 0 70 70" fill="none" xmlns="http://www.w3.org/2000/svg">
<rect width="70" height="70" rx="10" fill="url(#paint0_linear_6_369)"/>
<g clip-path="url(#clip0_6_369)">
<path d="M58.7709 32.3158C56.5513 26.79 54.3461 21.2642 52.1265 15.7241C51.7398 14.765 51.1957 14.3928 50.1503 14.3928C46.8854 14.3928 43.6062 14.3928 40.3413 14.3928C39.9833 14.3928 39.7971 14.3069 39.6253 13.949C38.6945 12.0593 37.1336 11 35 11C32.8663 11 31.3055 12.0593 30.3604 13.9776C30.1885 14.3355 29.9881 14.4214 29.6301 14.4071C26.3938 14.3928 23.1575 14.4071 19.9212 14.4071C18.7327 14.4071 18.2601 14.722 17.8162 15.8387C15.6683 21.2356 13.506 26.6326 11.3294 32.0295C11.0143 32.8026 10.9284 33.5613 11.043 34.3773C11.6157 38.4715 14.9809 41.6209 19.0191 41.8357C23.1575 42.0647 26.8377 39.3591 27.8544 35.3507C28.1694 34.1196 28.1694 32.9314 27.6396 31.7003C26.2506 28.422 24.9618 25.0865 23.6444 21.7796C23.1289 20.4912 22.6134 19.2028 22.0835 17.8715H30.1456C30.7041 19.2601 31.6635 20.2908 33.0668 20.892C33.1814 20.935 33.253 21.207 33.2387 21.3788C33.0955 23.9412 32.9523 26.518 32.7947 29.0805C32.5227 33.7474 32.2506 38.4286 31.9785 43.0954C31.8353 45.5148 31.6921 47.9341 31.5489 50.425C29.8019 50.425 28.1265 50.3964 26.4511 50.4393C25.6205 50.4536 24.7613 50.5109 23.9451 50.6684C22.0978 51.0262 21.2673 52.0999 21.253 53.9752C21.253 55.0632 21.2387 56.1512 21.253 57.2392C21.2673 58.2699 21.9833 58.9857 23.0143 59C30.9904 59 38.9523 59 46.9284 59C47.9594 59 48.6897 58.2842 48.6897 57.2392C48.704 56.0653 48.704 54.8771 48.6897 53.7032C48.6611 52.2144 47.9451 51.2553 46.5274 50.7972C46.1265 50.6684 45.6969 50.5395 45.2816 50.5395C43.2196 50.4823 41.1432 50.4536 39.0668 50.425C38.852 50.425 38.6515 50.425 38.4081 50.425C38.1933 46.7316 37.9785 43.0954 37.7637 39.4593C37.5632 35.9949 37.3628 32.5449 37.148 29.0805C36.9904 26.518 36.8472 23.9412 36.7041 21.3788C36.6897 21.2213 36.7613 20.9493 36.8759 20.892C38.2792 20.2765 39.2387 19.2458 39.7971 17.8571H47.8305C47.7589 18.0576 47.7017 18.2293 47.6301 18.3868C45.8258 22.9105 44.0215 27.4342 42.2029 31.9436C41.8735 32.7453 41.7876 33.5327 41.9021 34.3916C42.432 38.4286 45.8544 41.6209 49.9069 41.8214C54.1026 42.0218 57.8544 39.2302 58.7422 35.1933C58.9857 34.2627 59.1718 33.3036 58.7709 32.3158ZM23.8735 31.5285H15.2387C16.6563 27.9639 18.074 24.4423 19.5489 20.7346C21.0239 24.428 22.4415 27.9496 23.8735 31.5285ZM46.1265 31.5142C47.5585 27.9496 48.9618 24.4137 50.4367 20.7346C51.9117 24.4137 53.315 27.9353 54.747 31.5142H46.1265Z" fill="white"/>
</g>
<defs>
<linearGradient id="paint0_linear_6_369" x1="0" y1="70" x2="70" y2="0" gradientUnits="userSpaceOnUse">
<stop stop-color="#2E57FD"/>
<stop offset="1" stop-color="#1CD4DC"/>
</linearGradient>
<clipPath id="clip0_6_369">
<rect width="48" height="48" fill="white" transform="translate(11 11)"/>
</clipPath>
</defs>
</svg>
