<svg width="32" height="28" viewBox="0 0 32 28" fill="none" xmlns="http://www.w3.org/2000/svg">
<path d="M31.1 4.3C30.9 4.3 30.8 4.4 30.6 4.4C29.6 4.6 29.5 4.3 30.2 3.6C30.5 3.3 30.8 2.9 31 2.6C31.5 1.8 31.1 1.4 30.2 1.8C29.9 1.9 29.5 2.1 29.2 2.2C28.3 2.5 26.9 2 26.1 1.5C25 0.8 23.8 0.5 22.5 0.5C20.6 0.5 19 1.2 17.7 2.5C16.4 3.8 15.7 5.4 15.7 7.3C15.7 7.6 15.7 7.8 15.7 8.1C15.7 8.5 15 8.8 14 8.7C11.9 8.4 9.8 7.8 7.9 6.8C6 5.8 4.3 4.6 2.9 3.1C2.2 2.4 1.3 2.5 1 3.4C0.800004 4 0.800004 4.6 0.800004 5.2C0.800004 6.4 1.1 7.5 1.6 8.4C1.9 8.9 2.2 9.3 2.6 9.7C3.2 10.4 3.1 10.8 2.3 10.5C1.4 10.3 0.800004 9.9 0.800004 9.9C0.800004 11.5 1.3 13 2.4 14.2C3 15 3.8 15.6 4.6 16C5.5 16.4 5.9 16.7 5.4 16.7C5 17 4.7 17 4.4 17C4.2 17 4 17 3.8 17C3.4 17 3.4 17.7 3.9 18.5C4.3 19.2 4.9 19.7 5.5 20.2C6.2 20.7 6.9 21.1 7.7 21.3C8.7 21.6 8.8 22.1 8 22.6C5.9 23.9 3.6 24.5 1 24.5C0.700004 24.5 0.400004 24.5 0.200004 24.5C-0.299996 24.5 3.8743e-06 24.9 0.900004 25.3C3.7 26.7 6.6 27.5 9.8 27.5C12.2 27.5 14.5 27.1 16.6 26.4C18.7 25.6 20.6 24.6 22.1 23.3C23.6 22 24.9 20.5 26 18.9C27.1 17.2 27.9 15.5 28.4 13.7C28.9 11.9 29.2 10.1 29.2 8.2C29.2 8 29.2 7.9 29.2 7.8C29.2 7.6 29.8 6.9 30.6 6.2C30.9 5.9 31.2 5.6 31.5 5.2C32.3 4.4 32 4 31.1 4.3Z" fill="#BDCCE3"/>
</svg>
