<svg width="24" height="18" viewBox="0 0 24 18" fill="none" xmlns="http://www.w3.org/2000/svg">
<path d="M20.0275 1.57077C20.021 1.55814 20.0101 1.54824 19.9968 1.54285C18.4653 0.844911 16.8491 0.34723 15.1887 0.0622559C15.1736 0.0594702 15.158 0.0614802 15.1441 0.0679987C15.1303 0.0745182 15.1188 0.0852145 15.1114 0.0985662C14.8913 0.495308 14.6915 0.902819 14.5128 1.31955C12.723 1.04969 10.9023 1.04969 9.11254 1.31955C8.93263 0.901756 8.72966 0.494142 8.50451 0.0985662C8.49679 0.0855042 8.48529 0.0750539 8.4715 0.0685782C8.45771 0.0621016 8.44228 0.0598988 8.42722 0.0622559C6.76661 0.346632 5.15031 0.844353 3.61899 1.54288C3.60587 1.5484 3.59481 1.55783 3.58733 1.56986C0.524976 6.11217 -0.313918 10.5428 0.0976148 14.9186C0.0987728 14.9293 0.10209 14.9397 0.107369 14.9491C0.112649 14.9585 0.119783 14.9668 0.128348 14.9734C1.91152 16.2848 3.90603 17.2858 6.02676 17.9337C6.04169 17.9381 6.05764 17.938 6.07245 17.9332C6.08728 17.9283 6.10024 17.9191 6.10964 17.9068C6.56512 17.2912 6.96872 16.6393 7.31632 15.9579C7.32109 15.9485 7.32381 15.9382 7.32431 15.9278C7.32481 15.9173 7.32307 15.9069 7.3192 15.8971C7.31533 15.8873 7.30943 15.8785 7.30187 15.8711C7.29432 15.8638 7.28529 15.8582 7.27538 15.8546C6.63894 15.6127 6.02279 15.3212 5.43272 14.9826C5.422 14.9764 5.41299 14.9676 5.40651 14.9571C5.40002 14.9465 5.39624 14.9345 5.3955 14.9222C5.39476 14.9099 5.3971 14.8976 5.4023 14.8864C5.40749 14.8751 5.41539 14.8654 5.42529 14.8579C5.5491 14.7658 5.67299 14.6699 5.79123 14.5731C5.80173 14.5645 5.81444 14.559 5.82792 14.5572C5.84141 14.5554 5.85513 14.5574 5.86756 14.5629C9.73337 16.3152 13.9186 16.3152 17.7387 14.5629C17.7512 14.557 17.765 14.5547 17.7787 14.5564C17.7924 14.5581 17.8053 14.5636 17.816 14.5722C17.9343 14.669 18.0581 14.7658 18.1828 14.8579C18.1928 14.8653 18.2007 14.875 18.2061 14.8862C18.2113 14.8973 18.2138 14.9097 18.2131 14.922C18.2125 14.9343 18.2088 14.9463 18.2024 14.9569C18.1959 14.9674 18.187 14.9763 18.1763 14.9826C17.5876 15.324 16.9709 15.6154 16.3328 15.8536C16.3229 15.8574 16.3139 15.8632 16.3064 15.8706C16.2989 15.8781 16.293 15.887 16.2892 15.8968C16.2855 15.9067 16.2838 15.9172 16.2843 15.9277C16.2849 15.9382 16.2878 15.9485 16.2927 15.9579C16.6461 16.6355 17.049 17.2865 17.4984 17.9056C17.5075 17.9183 17.5204 17.9278 17.5353 17.9329C17.5502 17.9379 17.5662 17.9381 17.5813 17.9336C19.7058 17.2879 21.7038 16.2868 23.4891 14.9734C23.4979 14.9671 23.5051 14.959 23.5104 14.9498C23.5157 14.9404 23.519 14.9302 23.5199 14.9195C24.0126 9.86067 22.6951 5.46633 20.0275 1.57077ZM7.89364 12.2542C6.72975 12.2542 5.77073 11.1934 5.77073 9.89042C5.77073 8.58756 6.71115 7.52665 7.89364 7.52665C9.08537 7.52665 10.0351 8.59682 10.0165 9.89042C10.0165 11.1934 9.07603 12.2542 7.89364 12.2542ZM15.7426 12.2542C14.5788 12.2542 13.6197 11.1934 13.6197 9.89042C13.6197 8.58756 14.5602 7.52665 15.7426 7.52665C16.9345 7.52665 17.8841 8.59682 17.8655 9.89042C17.8655 11.1934 16.9345 12.2542 15.7426 12.2542Z" fill="white"/>
</svg>
