<svg width="24" height="22" viewBox="0 0 24 22" fill="none" xmlns="http://www.w3.org/2000/svg">
<path d="M22.05 5.89987C22.275 5.37487 22.875 3.34987 21.825 0.574871C21.825 0.574871 20.25 0.0498713 16.65 2.67487C15.15 2.22487 13.575 2.14987 11.925 2.14987C10.35 2.14987 8.7 2.22487 7.2 2.67487C3.75 -0.0251286 2.175 0.574871 2.175 0.574871C1.125 3.34987 1.725 5.37487 1.95 5.89987C0.75 7.32487 0 9.04987 0 11.2999C0 19.6249 5.025 21.4999 12 21.4999C18.975 21.4999 24 19.6249 24 11.2999C24 9.04987 23.25 7.32487 22.05 5.89987ZM12 19.9249C7.05 19.9249 3 19.6999 3 14.5249C3 13.3249 3.6 12.1249 4.5 11.2249C6.075 9.64987 8.85 10.4749 11.925 10.4749C15 10.4749 17.775 9.64987 19.35 11.2249C20.325 12.1999 20.925 13.3249 20.925 14.5249C21 19.6249 16.95 19.9249 12 19.9249ZM8.25 11.8249C7.275 11.8249 6.45 13.0999 6.45 14.6749C6.45 16.2499 7.275 17.5999 8.25 17.5999C9.225 17.5999 10.05 16.3249 10.05 14.6749C10.05 13.0999 9.225 11.8249 8.25 11.8249ZM15.75 11.8249C14.775 11.8249 13.95 13.0999 13.95 14.6749C13.95 16.2499 14.775 17.5999 15.75 17.5999C16.725 17.5999 17.55 16.3249 17.55 14.6749C17.55 13.0999 16.8 11.8249 15.75 11.8249Z" fill="white"/>
</svg>
