<svg width="24" height="22" viewBox="0 0 24 22" fill="none" xmlns="http://www.w3.org/2000/svg">
<path d="M23.325 3.725C23.175 3.725 23.1 3.8 22.95 3.8C22.2 3.95 22.125 3.725 22.65 3.2C22.875 2.975 23.1 2.675 23.25 2.45C23.625 1.85 23.325 1.55 22.65 1.85C22.425 1.925 22.125 2.075 21.9 2.15C21.225 2.375 20.175 2 19.575 1.625C18.75 1.1 17.85 0.875 16.875 0.875C15.45 0.875 14.25 1.4 13.275 2.375C12.3 3.35 11.775 4.55 11.775 5.975C11.775 6.2 11.775 6.35 11.775 6.575C11.775 6.875 11.25 7.1 10.5 7.025C8.92501 6.8 7.35001 6.35 5.92501 5.6C4.50001 4.85 3.22501 3.95 2.17501 2.825C1.65001 2.3 0.975011 2.375 0.750011 3.05C0.600011 3.5 0.600011 3.95 0.600011 4.4C0.600011 5.3 0.825011 6.125 1.20001 6.8C1.42501 7.175 1.65001 7.475 1.95001 7.775C2.40001 8.3 2.32501 8.6 1.72501 8.375C1.05001 8.225 0.600011 7.925 0.600011 7.925C0.600011 9.125 0.975011 10.25 1.80001 11.15C2.25001 11.75 2.85001 12.2 3.45001 12.5C4.12501 12.8 4.42501 13.025 4.05001 13.025C3.75001 13.25 3.52501 13.25 3.30001 13.25C3.15001 13.25 3.00001 13.25 2.85001 13.25C2.55001 13.25 2.55001 13.775 2.92501 14.375C3.22501 14.9 3.67501 15.275 4.12501 15.65C4.65001 16.025 5.17501 16.325 5.77501 16.475C6.52501 16.7 6.60001 17.075 6.00001 17.45C4.42501 18.425 2.70001 18.875 0.750011 18.875C0.525011 18.875 0.300011 18.875 0.150011 18.875C-0.224989 18.875 1.0537e-05 19.175 0.675011 19.475C2.77501 20.525 4.95001 21.125 7.35001 21.125C9.15001 21.125 10.875 20.825 12.45 20.3C14.025 19.7 15.45 18.95 16.575 17.975C17.7 17 18.675 15.875 19.5 14.675C20.325 13.4 20.925 12.125 21.3 10.775C21.675 9.425 21.9 8.075 21.9 6.65C21.9 6.5 21.9 6.425 21.9 6.35C21.9 6.2 22.35 5.675 22.95 5.15C23.175 4.925 23.4 4.7 23.625 4.4C24.225 3.8 24 3.5 23.325 3.725Z" fill="white"/>
</svg>
