<svg width="33" height="32" viewBox="0 0 33 32" fill="none" xmlns="http://www.w3.org/2000/svg">
<g clip-path="url(#clip0_2_53)">
<path d="M27.2033 6.09447C27.1946 6.07762 27.1801 6.06442 27.1624 6.05723C25.1203 5.12665 22.9655 4.46308 20.7515 4.08311C20.7314 4.0794 20.7106 4.08208 20.6921 4.09077C20.6737 4.09946 20.6584 4.11372 20.6486 4.13152C20.3551 4.66051 20.0887 5.20386 19.8504 5.75951C17.464 5.39969 15.0365 5.39969 12.6501 5.75951C12.4102 5.20244 12.1395 4.65896 11.8393 4.13152C11.8291 4.11411 11.8137 4.10017 11.7953 4.09154C11.7769 4.0829 11.7564 4.07997 11.7363 4.08311C9.52215 4.46228 7.36709 5.12591 5.32531 6.05728C5.30783 6.06464 5.29309 6.07721 5.28311 6.09324C1.19997 12.1497 0.0814433 18.0572 0.630153 23.8916C0.631697 23.9058 0.63612 23.9197 0.643159 23.9322C0.650199 23.9448 0.659711 23.9559 0.67113 23.9647C3.0487 25.7132 5.70805 27.0479 8.53568 27.9117C8.55559 27.9176 8.57686 27.9174 8.59661 27.911C8.61637 27.9045 8.63366 27.8922 8.64618 27.8758C9.25349 27.055 9.79162 26.1858 10.2551 25.2773C10.2615 25.2648 10.2651 25.2511 10.2657 25.2372C10.2664 25.2232 10.2641 25.2093 10.2589 25.1962C10.2538 25.1832 10.2459 25.1714 10.2358 25.1616C10.2258 25.1519 10.2137 25.1444 10.2005 25.1396C9.35192 24.817 8.53039 24.4284 7.74362 23.9769C7.72933 23.9686 7.71733 23.9569 7.70867 23.9429C7.70002 23.9288 7.69498 23.9128 7.694 23.8964C7.69302 23.88 7.69614 23.8636 7.70306 23.8486C7.70999 23.8336 7.72051 23.8206 7.73372 23.8106C7.8988 23.6878 8.06399 23.56 8.22163 23.4309C8.23563 23.4194 8.25258 23.4121 8.27056 23.4097C8.28855 23.4073 8.30685 23.41 8.32341 23.4173C13.4778 25.7537 19.0582 25.7537 24.1515 23.4173C24.1682 23.4095 24.1866 23.4064 24.2049 23.4087C24.2232 23.4109 24.2405 23.4182 24.2546 23.4297C24.4123 23.5588 24.5775 23.6878 24.7438 23.8106C24.757 23.8205 24.7677 23.8334 24.7747 23.8484C24.7817 23.8632 24.785 23.8797 24.7841 23.8961C24.7833 23.9125 24.7784 23.9285 24.7698 23.9426C24.7613 23.9567 24.7494 23.9685 24.7351 23.9769C23.9502 24.4321 23.1279 24.8206 22.277 25.1383C22.2639 25.1433 22.2519 25.151 22.2418 25.1609C22.2319 25.1709 22.224 25.1828 22.219 25.1959C22.2139 25.209 22.2118 25.223 22.2125 25.237C22.2133 25.2511 22.217 25.2648 22.2235 25.2773C22.6947 26.1808 23.232 27.0488 23.8312 27.8743C23.8433 27.8912 23.8606 27.9039 23.8803 27.9106C23.9002 27.9173 23.9216 27.9176 23.9417 27.9116C26.7744 27.0506 29.4384 25.7159 31.8189 23.9647C31.8305 23.9562 31.8401 23.9455 31.8472 23.9331C31.8543 23.9207 31.8586 23.907 31.8599 23.8928C32.5168 17.1477 30.7601 11.2885 27.2033 6.09447ZM11.0248 20.339C9.47299 20.339 8.19431 18.9246 8.19431 17.1873C8.19431 15.4502 9.44819 14.0356 11.0248 14.0356C12.6138 14.0356 13.8801 15.4625 13.8553 17.1873C13.8553 18.9246 12.6014 20.339 11.0248 20.339ZM21.4902 20.339C19.9384 20.339 18.6597 18.9246 18.6597 17.1873C18.6597 15.4502 19.9136 14.0356 21.4902 14.0356C23.0793 14.0356 24.3455 15.4625 24.3207 17.1873C24.3207 18.9246 23.0793 20.339 21.4902 20.339Z" fill="white"/>
</g>
<defs>
<clipPath id="clip0_2_53">
<rect width="32" height="32" fill="white" transform="translate(0.5)"/>
</clipPath>
</defs>
</svg>
