<svg width="28" height="28" viewBox="0 0 28 28" fill="none" xmlns="http://www.w3.org/2000/svg">
<path d="M23.3654 5.33265C23.3578 5.31791 23.3451 5.30636 23.3296 5.30007C21.5428 4.48581 19.6573 3.90518 17.7201 3.57271C17.7025 3.56946 17.6843 3.57181 17.6681 3.57941C17.652 3.58702 17.6386 3.5995 17.63 3.61508C17.3732 4.07794 17.1401 4.55337 16.9316 5.03956C14.8435 4.72472 12.7194 4.72472 10.6313 5.03956C10.4214 4.55213 10.1846 4.07658 9.92193 3.61508C9.91292 3.59984 9.8995 3.58764 9.88342 3.58009C9.86733 3.57253 9.84933 3.56996 9.83175 3.57271C7.89438 3.90449 6.0087 4.48516 4.22215 5.30011C4.20685 5.30655 4.19395 5.31755 4.18522 5.33158C0.612472 10.6309 -0.366237 15.8 0.113884 20.9051C0.115235 20.9176 0.119105 20.9297 0.125264 20.9407C0.131424 20.9517 0.139747 20.9614 0.149739 20.9691C2.23011 22.499 4.55704 23.6669 7.03122 24.4227C7.04864 24.4279 7.06725 24.4277 7.08453 24.4221C7.10182 24.4164 7.11695 24.4057 7.12791 24.3913C7.6593 23.6731 8.13017 22.9126 8.5357 22.1176C8.54127 22.1067 8.54445 22.0947 8.54503 22.0825C8.54561 22.0703 8.54358 22.0581 8.53907 22.0467C8.53455 22.0353 8.52767 22.025 8.51885 22.0164C8.51004 22.0079 8.4995 22.0013 8.48794 21.9971C7.74543 21.7149 7.02659 21.3748 6.33817 20.9798C6.32566 20.9725 6.31516 20.9623 6.30759 20.95C6.30002 20.9377 6.29561 20.9237 6.29475 20.9093C6.29389 20.895 6.29662 20.8806 6.30268 20.8675C6.30874 20.8544 6.31795 20.843 6.3295 20.8343C6.47395 20.7268 6.61849 20.615 6.75643 20.502C6.76868 20.492 6.78351 20.4856 6.79924 20.4835C6.81498 20.4814 6.83099 20.4837 6.84548 20.4901C11.3556 22.5345 16.2384 22.5345 20.6951 20.4901C20.7097 20.4833 20.7258 20.4806 20.7418 20.4826C20.7578 20.4845 20.7729 20.4909 20.7853 20.501C20.9233 20.6139 21.0678 20.7268 21.2133 20.8343C21.2249 20.8429 21.2342 20.8542 21.2404 20.8673C21.2465 20.8803 21.2494 20.8947 21.2486 20.9091C21.2479 20.9234 21.2436 20.9374 21.2361 20.9498C21.2286 20.9621 21.2182 20.9724 21.2057 20.9798C20.5189 21.3781 19.7994 21.718 19.0549 21.996C19.0434 22.0004 19.0329 22.0071 19.0241 22.0158C19.0154 22.0245 19.0085 22.0349 19.0041 22.0464C18.9997 22.0579 18.9978 22.0701 18.9984 22.0824C18.9991 22.0947 19.0024 22.1067 19.0081 22.1176C19.4204 22.9082 19.8905 23.6677 20.4148 24.39C20.4254 24.4048 20.4405 24.4159 20.4578 24.4218C20.4752 24.4276 20.4939 24.4279 20.5115 24.4226C22.9901 23.6693 25.3211 22.5014 27.404 20.9691C27.4142 20.9617 27.4226 20.9523 27.4288 20.9415C27.435 20.9306 27.4388 20.9186 27.4399 20.9062C28.0147 15.0042 26.4776 9.87746 23.3654 5.33265ZM9.20924 17.7966C7.85137 17.7966 6.73252 16.559 6.73252 15.0389C6.73252 13.5189 7.82967 12.2812 9.20924 12.2812C10.5996 12.2812 11.7076 13.5297 11.6859 15.0389C11.6859 16.559 10.5887 17.7966 9.20924 17.7966ZM18.3664 17.7966C17.0086 17.7966 15.8897 16.559 15.8897 15.0389C15.8897 13.5189 16.9869 12.2812 18.3664 12.2812C19.7569 12.2812 20.8648 13.5297 20.8431 15.0389C20.8431 16.559 19.7569 17.7966 18.3664 17.7966Z" fill="#2F2F2F"/>
</svg>
