<svg width="70" height="70" viewBox="0 0 70 70" fill="none" xmlns="http://www.w3.org/2000/svg">
<rect width="70" height="70" rx="10" fill="url(#paint0_linear_6_367)"/>
<g clip-path="url(#clip0_6_367)">
<path d="M53.7419 25.1545C54.8687 25.1545 55.9955 25.1169 57.1097 25.167C57.9861 25.2046 58.6246 24.9415 59.0002 24.1273V23.3758C58.6246 22.5616 57.9861 22.2985 57.1097 22.3361C55.8577 22.3862 54.5933 22.3486 53.2787 22.3486V18.8038C53.2787 18.6033 53.2787 18.4029 53.2787 18.19C53.2662 17.3132 52.6778 16.7244 51.8014 16.7119C50.4493 16.6994 49.0847 16.7119 47.6574 16.7119V16.261C47.6574 15.1336 47.6199 14.0063 47.6699 12.8914C47.7075 12.0146 47.4446 11.3758 46.6308 11H45.8796C45.0659 11.3758 44.803 12.0146 44.8405 12.8914C44.8906 14.1441 44.853 15.4092 44.853 16.6994H42.0361V16.261C42.0361 15.1336 41.9986 14.0063 42.0487 12.8914C42.0862 12.0146 41.8233 11.3758 41.0095 11H40.2584C39.4446 11.3758 39.1817 12.0146 39.2192 12.8914C39.2693 14.1441 39.2318 15.4092 39.2318 16.6994H36.4149V16.261C36.4149 15.1336 36.3773 14.0063 36.4274 12.8914C36.4649 12.0146 36.202 11.3758 35.3883 11H34.6371C33.8233 11.3758 33.5604 12.0146 33.598 12.8914C33.648 14.1441 33.6105 15.4092 33.6105 16.6994H30.7936V16.261C30.7936 15.1336 30.756 14.0063 30.8061 12.8914C30.8436 12.0146 30.5807 11.3758 29.767 11H29.0158C28.202 11.3758 27.9391 12.0146 27.9767 12.8914C28.0267 14.1441 27.9892 15.4092 27.9892 16.6994H25.1848V16.261C25.1848 15.1336 25.1472 14.0063 25.1973 12.8914C25.2349 12.0146 24.972 11.3758 24.1582 11H23.407C22.5933 11.3758 22.3303 12.0146 22.3679 12.8914C22.418 14.1566 22.3804 15.4092 22.3804 16.7244C21.0408 16.7244 19.7513 16.7244 18.4618 16.7244C18.274 16.7244 18.0862 16.7119 17.8984 16.7495C17.2098 16.8873 16.7591 17.4509 16.7591 18.2025C16.7466 19.5428 16.7466 20.8956 16.7466 22.2359C16.7466 22.2484 16.7341 22.261 16.7091 22.3486H16.2584C15.0314 22.3486 13.792 22.3486 12.5526 22.3486C11.6386 22.3486 11.0127 22.9374 11.0127 23.7516C11.0127 24.5658 11.6512 25.1545 12.5526 25.1545C13.9172 25.1545 15.2943 25.1545 16.6965 25.1545V27.9729C15.8577 27.9729 15.0314 27.9729 14.2177 27.9729C13.6292 27.9729 13.0283 27.9603 12.4399 27.9729C11.6386 27.9854 11.0252 28.5992 11.0252 29.3507C11.0127 30.1399 11.6261 30.7662 12.4524 30.7662C13.6918 30.7787 14.9188 30.7662 16.1582 30.7662H16.7091V33.5846H15.7951C14.731 33.5846 13.6668 33.5846 12.6026 33.5846C11.6637 33.5846 11.0127 34.1608 11.0252 35C11.0377 35.8142 11.6637 36.3904 12.5776 36.3904C13.792 36.3904 15.0189 36.3904 16.2333 36.3904H16.7091V39.2088H16.2709C15.0314 39.2088 13.8045 39.2088 12.5651 39.2088C11.6512 39.2088 11.0252 39.7975 11.0252 40.6117C11.0252 41.4259 11.6637 42.0146 12.5651 42.0271C13.9422 42.0271 15.3069 42.0271 16.7091 42.0271V44.833C15.3069 44.833 13.9172 44.7954 12.54 44.858C12.1519 44.8706 11.7138 45.0585 11.4133 45.309C10.9751 45.6848 10.9 46.2234 11.1253 46.7745C11.3757 47.3507 11.8264 47.6514 12.4399 47.6514C13.6793 47.6639 14.9062 47.6514 16.1457 47.6514H16.7216V48.1148C16.7216 49.3173 16.7216 50.5198 16.7216 51.7223C16.7216 52.6994 17.2975 53.2631 18.2615 53.2756C19.6011 53.2756 20.9407 53.2756 22.3429 53.2756V57.3215C22.3429 58.3486 22.8937 59 23.7576 59C24.6089 58.9875 25.1472 58.3486 25.1472 57.3466C25.1472 56.1566 25.1472 54.9666 25.1472 53.7891V53.3132H27.9516V53.7516C27.9516 54.9916 27.9516 56.2192 27.9516 57.4593C27.9516 58.3737 28.54 59 29.3538 59C30.1801 59 30.756 58.3737 30.756 57.4593C30.756 56.0814 30.756 54.7161 30.756 53.3132H33.5729V56.833C33.5729 57.096 33.5604 57.3591 33.5729 57.6347C33.6105 58.3987 34.2114 59 34.9626 59.0125C35.7263 59.0251 36.3648 58.4238 36.3773 57.6221C36.3898 56.2818 36.3773 54.9415 36.3898 53.5887C36.3898 53.5136 36.4023 53.4384 36.4023 53.3257H39.2067V54.428C39.2067 55.4551 39.1942 56.4948 39.2067 57.5219C39.2192 58.3862 39.8202 59.0125 40.6214 59C41.4102 58.9875 41.9986 58.3737 42.0111 57.5344C42.0236 56.2818 42.0111 55.0292 42.0111 53.7891V53.3132H44.803C44.8155 53.4635 44.828 53.6138 44.828 53.7641C44.828 55.0042 44.828 56.2317 44.828 57.4718C44.828 58.3862 45.4164 59.0125 46.2302 59.0125C47.044 59.0125 47.6324 58.3737 47.6324 57.4718C47.6324 56.0939 47.6324 54.7286 47.6324 53.3006H49.1973C50.0361 53.3006 50.8875 53.3006 51.7263 53.3006C52.6652 53.3006 53.2537 52.7244 53.2537 51.785C53.2537 50.5825 53.2537 49.38 53.2537 48.1775V47.6764C54.5557 47.6764 55.8202 47.6388 57.0847 47.6889C57.961 47.7265 58.5995 47.4635 58.9751 46.6493V45.8977C58.5995 45.0835 57.961 44.8205 57.0847 44.858C55.8327 44.9081 54.5682 44.8706 53.2787 44.8706V42.0647H53.7169C54.8437 42.0647 55.9704 42.0271 57.0847 42.0772C57.961 42.1148 58.5995 41.8518 58.9751 41.0376V40.286C58.5995 39.4718 57.961 39.2088 57.0847 39.2463C55.8327 39.2965 54.5682 39.2589 53.2787 39.2589V36.4405H53.7169C54.8437 36.4405 55.9704 36.4029 57.0847 36.453C57.961 36.4906 58.5995 36.215 58.9751 35.4134V34.6618C58.5995 33.8476 57.961 33.5846 57.0847 33.6221C55.8327 33.6722 54.5682 33.6347 53.2787 33.6347V30.8163H53.7169C54.8437 30.8163 55.9704 30.7787 57.0847 30.8288C57.961 30.8664 58.5995 30.6033 58.9751 29.7891V29.0376C58.5995 28.2234 57.961 27.9603 57.0847 27.9979C55.8327 28.048 54.5682 28.0104 53.2787 28.0104V25.1545H53.7419ZM47.6574 46.023C47.6574 47.1127 47.1191 47.6639 46.0174 47.6639H24.0455C22.8812 47.6639 22.3554 47.1378 22.3554 45.9854V24.0021C22.3554 22.8747 22.8937 22.3486 24.0205 22.3486C31.3444 22.3486 38.6684 22.3486 45.9923 22.3486C47.1191 22.3486 47.6574 22.8873 47.6574 24.0021C47.6574 31.3424 47.6574 38.6827 47.6574 46.023Z" fill="white"/>
<path d="M39.2191 29.4007C39.2316 30.1648 39.8326 30.7786 40.6463 30.7786C42.0235 30.7911 43.4006 30.7786 44.8028 30.7786V44.8078H42.036V42.0521C42.036 41.6012 42.0485 41.1502 42.036 40.6993C42.0235 39.835 41.4225 39.2087 40.6088 39.2212C39.82 39.2337 39.2316 39.8475 39.2316 40.6867C39.2191 42.0521 39.2316 43.4049 39.2316 44.8078H36.4523C36.4398 44.7076 36.4272 44.5824 36.4272 44.4696C36.4272 42.6784 36.4272 40.8746 36.4147 39.0834C36.4147 38.7953 36.5024 38.645 36.7653 38.5197C38.2676 37.7932 39.7574 37.0417 41.2473 36.2776C41.8357 35.9769 42.1236 35.4007 42.036 34.812C41.9484 34.2358 41.5352 33.7473 40.9593 33.6596C40.6338 33.6095 40.2582 33.6596 39.9703 33.7974C38.1174 34.6867 36.277 35.6262 34.4366 36.5531C33.8607 36.8412 33.6103 37.3298 33.6103 37.9686C33.6103 40.073 33.6103 42.1899 33.6103 44.2943V44.8454H25.1972V42.0521H25.6354C26.8373 42.0521 28.0391 42.0521 29.241 42.0521C30.1549 42.0521 30.7809 41.4759 30.7934 40.6492C30.7934 39.835 30.1675 39.2462 29.2535 39.2337C27.9139 39.2337 26.5743 39.2337 25.1972 39.2337V25.1794H27.9765V25.6179C27.9765 26.8204 27.9765 28.0229 27.9765 29.2254C27.9765 30.1398 28.565 30.7661 29.3787 30.7786C30.205 30.7786 30.7809 30.1523 30.7934 29.2379C30.7934 27.8976 30.7934 26.5573 30.7934 25.192H33.6103V25.6179C33.6103 27.384 33.5978 29.1502 33.6229 30.9164C33.6229 31.2295 33.5352 31.3799 33.2598 31.5176C31.77 32.2442 30.2927 32.9832 28.8153 33.7222C28.2269 34.0229 27.9265 34.5865 28.0016 35.1753C28.0767 35.764 28.5149 36.2776 29.1033 36.3527C29.4163 36.3903 29.7793 36.3527 30.0548 36.2275C31.9077 35.3256 33.748 34.3986 35.5884 33.4842C36.1643 33.1961 36.4272 32.7202 36.4272 32.0813C36.4272 29.9519 36.4272 27.835 36.4272 25.7055V25.1794H44.8279V27.9728H42.1236C41.6354 27.9728 41.1596 27.9602 40.6714 27.9728C39.8326 27.9978 39.2191 28.6116 39.2191 29.4007Z" fill="white"/>
</g>
<defs>
<linearGradient id="paint0_linear_6_367" x1="0" y1="70" x2="70" y2="0" gradientUnits="userSpaceOnUse">
<stop stop-color="#2E57FD"/>
<stop offset="1" stop-color="#1CD4DC"/>
</linearGradient>
<clipPath id="clip0_6_367">
<rect width="48" height="48" fill="white" transform="translate(11 11)"/>
</clipPath>
</defs>
</svg>
