<svg width="28" height="28" viewBox="0 0 28 28" fill="none" xmlns="http://www.w3.org/2000/svg">
<path d="M25.1411 8.51388C25.1587 8.75886 25.1587 9.0039 25.1587 9.24889C25.1587 16.7213 19.4244 25.3314 8.94383 25.3314C5.71495 25.3314 2.71549 24.4038 0.192383 22.7939C0.651144 22.8464 1.0922 22.8639 1.56862 22.8639C4.23282 22.8639 6.68537 21.9714 8.64386 20.449C6.13841 20.3964 4.03877 18.7689 3.31535 16.5289C3.66825 16.5813 4.02112 16.6164 4.39167 16.6164C4.90333 16.6164 5.41505 16.5464 5.8914 16.4239C3.2801 15.8989 1.32155 13.6239 1.32155 10.8764V10.8064C2.08022 11.2264 2.96249 11.4889 3.89755 11.5239C2.36252 10.5088 1.35685 8.77638 1.35685 6.81635C1.35685 5.76638 1.6391 4.80388 2.13317 3.96387C4.93858 7.39387 9.15553 9.63383 13.884 9.87887C13.7959 9.45887 13.7429 9.02142 13.7429 8.5839C13.7429 5.46887 16.2837 2.9314 19.4419 2.9314C21.0828 2.9314 22.565 3.61389 23.6059 4.7164C24.8939 4.47141 26.1289 3.99888 27.223 3.3514C26.7995 4.66393 25.8997 5.76643 24.7175 6.46639C25.8644 6.34394 26.976 6.02887 27.9992 5.59142C27.2231 6.71137 26.2526 7.70883 25.1411 8.51388Z" fill="#2F2F2F"/>
</svg>
